<svg xmlns="http://www.w3.org/2000/svg" xmlns:xlink="http://www.w3.org/1999/xlink" xml:space="preserve" version="1.0" style="shape-rendering:geometricPrecision;text-rendering:geometricPrecision;image-rendering:optimizeQuality;" viewBox="0 0 100 125" x="0px" y="0px" fill-rule="evenodd" clip-rule="evenodd"><defs><style type="text/css">
   
    .fil0 {fill:black}
   
  </style><clipPath><rect x="6233" y="-2779" width="7583" height="5058"/></clipPath></defs><g><path class="fil0" d="M39 54c-9,-4 -13,-6 -13,-6 32,-12 48,-19 48,-19 -6,28 -9,42 -9,42 -13,-10 -19,-14 -19,-14 13,-13 19,-19 19,-19 -17,11 -26,16 -26,16zm-12 -49l46 0c12,0 22,10 22,22l0 46c0,12 -10,22 -22,22l-46 0c-12,0 -22,-10 -22,-22l0 -46c0,-12 10,-22 22,-22zm3 5l40 0c11,0 20,9 20,20l0 40c0,11 -9,20 -20,20l-40 0c-11,0 -20,-9 -20,-20l0 -40c0,-11 9,-20 20,-20z"/></g><text x="0" y="115" fill="#000000" font-size="5px" font-weight="bold" font-family="'Helvetica Neue', Helvetica, Arial-Unicode, Arial, Sans-serif">Created by Felix</text><text x="0" y="120" fill="#000000" font-size="5px" font-weight="bold" font-family="'Helvetica Neue', Helvetica, Arial-Unicode, Arial, Sans-serif">from the Noun Project</text></svg>